# xmcd
#
# Track frame offsets: 
#        150
#        20284
#        37045
#        62444
#        76426
#        94118
#        111957
#        124511
#        144536
#        163687
#        182985
#        203708
#        222137
#        242378
#
# Disc length: 3446 seconds
#
# Revision: 0
# Processed by: cddbd v1.5.2PL0 Copyright (c) Steve Scherf et al.
# Submitted via: ExactAudioCopy v1.0b3
#
DISCID=b90d740e
DTITLE=The Ragpicker String Band - The Ragpicker String Band
DYEAR=1900
DGENRE=Blues
TTITLE0=Honey Babe
TTITLE1=Minor Blues
TTITLE2=Google Blues
TTITLE3=Blue Monk
TTITLE4=Clean Up At Home
TTITLE5=Motel Towel
TTITLE6=Baby Where You Been
TTITLE7=Black Mattie
TTITLE8=Lonely One In This Town
TTITLE9=By Your Side
TTITLE10=Milk Cow Blues
TTITLE11=Trimmed and Burning
TTITLE12=Street Doctor Blues
TTITLE13=Bruno's Dream
EXTD=
EXTT0=
EXTT1=
EXTT2=
EXTT3=
EXTT4=
EXTT5=
EXTT6=
EXTT7=
EXTT8=
EXTT9=
EXTT10=
EXTT11=
EXTT12=
EXTT13=
PLAYORDER=
